# xmcd
#
# Track frame offsets: 
#        150
#        12889
#        31514
#        47441
#        69003
#        98178
#        128192
#        147241
#        165233
#        184812
#        202400
#        228775
#        250322
#        270143
#        285911
#        298623
#
# Disc length: 4277 seconds
#
# Revision: 0
# Processed by: cddbd v1.4PL0 Copyright (c) Steve Scherf et al.
# Submitted via: ExactAudioCopy v0.90b4
#
DISCID=cd10b310
DTITLE=Ry Cooder - Record Plant  07-23-74
DYEAR=1900
DGENRE=
TTITLE0=Police Dog Blues
TTITLE1=FDR In Trindad
TTITLE2=If Walls Could Talk
TTITLE3=Tamp 'Em Up Solid
TTITLE4=Vigilante Man
TTITLE5=How Can A Poor Man Stand Such Times And Live
TTITLE6=Tattler
TTITLE7=Coming In On A Wing And A Prayer
TTITLE8=Alimony
TTITLE9=Tear Drops Will Fall
TTITLE10=I'm A Pilgrim - Episcopalian Hymn
TTITLE11=Cleanin' Up At Home
TTITLE12=Blind Man Messed Up By Tear Gas
TTITLE13=One Meatball
TTITLE14=Diddy Wah Diddy
TTITLE15=Dark Is The Night
EXTD=
EXTT0=
EXTT1=
EXTT2=
EXTT3=
EXTT4=
EXTT5=
EXTT6=
EXTT7=
EXTT8=
EXTT9=
EXTT10=
EXTT11=
EXTT12=
EXTT13=
EXTT14=
EXTT15=
PLAYORDER=
